<?xml version="1.0" encoding="utf-8"?>
<!-- Generator: Adobe Illustrator 16.0.0, SVG Export Plug-In . SVG Version: 6.00 Build 0)  -->
<!DOCTYPE svg PUBLIC "-//W3C//DTD SVG 1.1//EN" "http://www.w3.org/Graphics/SVG/1.1/DTD/svg11.dtd">
<svg version="1.1" id="Layer_1" xmlns="http://www.w3.org/2000/svg" xmlns:xlink="http://www.w3.org/1999/xlink" x="0px" y="0px"
	 width="1024px" height="1024px" viewBox="0 0 1024 1024" enable-background="new 0 0 1024 1024" xml:space="preserve">
<g>
	<path fill="#FFF200" d="M341.174,626.939c17.757,0,493.408-0.592,566.098-0.588c16.023,0.002,16.328,0.324,15.998,16.021
		c-0.424,19.953-0.424,19.953-20.779,19.953c-194.338,0-388.674,0-583.008,0c-13.387,0-14.768-1.209-15.998-14.432
		c-0.776-8.355-1.381-16.725-2.103-25.086c-0.529-6.115-3.948-9.072-10.05-9.145c-36.616-0.441-73.23-1.021-109.849-1.27
		c-8.646-0.061-13.524,4.689-17.342,12.945c-5.174,11.188-6.003,13.806-10.841,23.271c-2.278,4.459-5.333,13.25-12,13.5
		c-8.605,0.322-25.228-0.189-33.923-0.43c-7.217-0.199-10.18-3.445-6.55-10.359c7.378-14.057,14.822-28.08,22.483-41.982
		c43.536-79.008,87.191-157.949,130.654-236.998c3.929-7.145,9.346-10.428,17.348-10.395c12.008,0.051,24.018-0.215,36.026-0.292
		c5.922-0.039,9.73,2.525,10.3,8.799c4.17,45.99,8.321,91.984,12.51,137.974c2.692,29.553,5.43,59.1,8.164,88.648
		C339.193,606.582,340.133,616.076,341.174,626.939z M243.434,571.83c0,0.137,0,0.277,0,0.414c12.892,0,25.788,0.205,38.675-0.07
		c9.126-0.195,12.929-3.945,11.961-12.699c-3.314-30.01-6.925-59.991-10.971-89.906c-0.378-2.795-4.201-6.379-7.159-7.341
		c-10.502-3.423-17.928,2.065-23.346,10.418c-18.243,28.12-36.487,56.243-54.271,84.655c-6.147,9.824-3.419,14.162,8.239,14.459
		C218.844,572.07,231.142,571.83,243.434,571.83z"/>
	<path fill="#FFF200" d="M563.295,483.005c0-35.437-0.014-70.874,0.006-106.311c0.008-13.124,1.516-14.78,14.262-14.682
		c34.775,0.27,69.586-0.186,104.316,1.25c34.861,1.438,56.057,26.855,52.486,61.356c-1.035,10.018-3.107,20.152-6.426,29.631
		c-2.248,6.419-6.846,12.396-11.568,17.478c-7.389,7.949-7.635,9.664,1.48,16.079c34.494,24.283,30.289,84.188-7.479,105.623
		c-13.021,7.389-27.135,11.137-42.104,11.188c-30.332,0.105-60.666,0.035-90.996,0.029c-13.254-0.002-13.955-0.67-13.969-14.428
		C563.271,554.48,563.295,518.744,563.295,483.005z M641.504,504.727c-0.02,0.281-0.037,0.562-0.057,0.842
		c-8.699,0-17.398-0.039-26.1,0.016c-6.195,0.041-9.439,3.168-9.441,9.447c-0.01,13.5-0.008,27,0.002,40.5
		c0.004,5.697,2.736,9.543,8.516,9.447c20.313-0.334,40.756,0.166,60.883-2.068c15.531-1.725,24.264-13.318,24.246-26.713
		c-0.016-13.271-9.783-25.957-24.141-28.686C664.332,505.406,652.82,505.57,641.504,504.727z M638.826,458.656
		c0,0.023,0,0.047,0,0.071c4.807,0,9.656-0.437,14.406,0.081c14.951,1.624,24.828-4.223,31.939-17.744
		c7.697-14.636,2.463-31.937-13.822-34.146c-18.859-2.562-38.174-2.131-57.289-2.037c-2.734,0.014-7.549,5.256-7.787,8.357
		c-0.92,11.921-0.357,23.955-0.367,35.946c-0.006,6.357,3.381,9.368,9.496,9.447C623.209,458.732,631.02,458.656,638.826,458.656z"
		/>
	<path fill="#FFF200" d="M448.845,604.789c-24.022,0.002-48.047,0.014-72.069-0.002c-11.242-0.008-13.546-2.754-11.994-14.037
		c3.561-25.865,15.287-47.359,35.931-63.234c19.718-15.16,40.343-29.137,60.407-43.852c11.699-8.581,22.408-17.943,26.311-33.023
		c5.164-19.965-4.203-39.789-22.016-45.341c-19.994-6.231-38.114,3.407-45.15,24.347c-2.089,6.216-3.979,12.662-4.677,19.141
		c-0.705,6.56-4.079,9.05-9.877,9.169c-9.005,0.185-18.021,0.226-27.021-0.044c-5.96-0.18-9.263-3.063-8.997-9.705
		c1.941-48.448,32.402-84.545,83.141-85.539c21.794-0.427,41.209,4.737,58.605,18.52c32.406,25.677,36.133,84.748-1.895,115.424
		c-15.14,12.215-31.796,22.531-47.499,34.064c-8.923,6.555-17.508,13.613-25.82,20.926c-2.171,1.912-2.755,5.627-4.067,8.514
		c2.895,1.172,5.778,3.324,8.687,3.359c27.619,0.332,55.243,0.301,82.864,0.383c12.715,0.039,14.516,1.721,14.861,14.475
		c0.152,5.658,0.359,11.373-0.229,16.979c-0.857,8.182-7.068,9.465-13.822,9.469C499.293,604.795,474.069,604.785,448.845,604.789z"
		/>
	<path fill="#FFF200" d="M836.609,604.791c-24.316,0-48.631,0.021-72.945-0.008c-10.225-0.016-12.643-2.852-11.379-12.994
		c3.232-25.91,14.678-47.594,35.195-63.6c19.129-14.92,39.332-28.456,58.932-42.78c12.666-9.258,24.762-18.96,28.914-35.4
		c4.975-19.68-5.049-39.762-22.932-44.948c-19.676-5.709-37.816,4.063-44.471,24.327c-2.137,6.504-3.766,13.257-4.777,20.023
		c-0.816,5.458-3.5,8.277-8.654,8.415c-9.596,0.253-19.209,0.32-28.801,0.019c-5.59-0.174-8.713-3.211-8.453-9.311
		c2.033-47.739,30.771-83.586,81.014-85.817c25.824-1.146,48.695,5.27,66.977,24.4c29.137,30.491,25.219,81.988-9.105,110.389
		c-13.354,11.047-28.402,20.02-42.383,30.34c-10.109,7.463-19.926,15.367-29.436,23.58c-2.316,1.998-2.92,5.982-4.311,9.055
		c2.973,1.078,5.936,3.061,8.92,3.096c26.113,0.289,52.227,0.242,78.34,0.275c16.982,0.021,16.982,0.006,17.072,17.502
		c0.119,23.439,0.119,23.438-22.879,23.439C879.836,604.793,858.221,604.793,836.609,604.791z"/>
</g>
</svg>
